PathFileType	4	(X/Y/Z)	/Users/niels/Desktop/University/Third Semester/Perception and Action/Exam/Gymnastics Motion Tracking/Code for Gym Tracking/Analyzed Data/Webcam_Backflip/id4_1_baseline_Sports2D/id4_1_baseline_Sports2D_px_person00.trc
DataRate	CameraRate	NumFrames	NumMarkers	Units	OrigDataRate	OrigDataStartFrame	OrigNumFrames
29.80132450331126	29.80132450331126	10	22	m	29.80132450331126	94	151
Frame#	Time	Hip			RHip			RKnee			RAnkle			RBigToe			RSmallToe			RHeel			LHip			LKnee			LAnkle			LBigToe			LSmallToe			LHeel			Neck			Head			Nose			RShoulder			RElbow			RWrist			LShoulder			LElbow			LWrist		
		X1	Y1	Z1	X2	Y2	Z2	X3	Y3	Z3	X4	Y4	Z4	X5	Y5	Z5	X6	Y6	Z6	X7	Y7	Z7	X8	Y8	Z8	X9	Y9	Z9	X10	Y10	Z10	X11	Y11	Z11	X12	Y12	Z12	X13	Y13	Z13	X14	Y14	Z14	X15	Y15	Z15	X16	Y16	Z16	X17	Y17	Z17	X18	Y18	Z18	X19	Y19	Z19	X20	Y20	Z20	X21	Y21	Z21	X22	Y22	Z22
94	3.1542222222222223	1.1018351594754556	-0.5803240281619758	0.0	1.1000855077300296	-0.5769250002850042	0.0	1.1074780178428707	-0.6893244358315078	0.0	1.1093271116649437	-0.7906374060313787	0.0	1.1370038539321745	-0.8156029264461233	0.0	1.133700978704698	-0.8158621895810263	0.0	1.1067549870977134	-0.8077667846387104	0.0	1.10456643896505	-0.576397698747463	0.0	1.1085823519815443	-0.6873863497803142	0.0	1.1099883674359752	-0.7906938568755575	0.0	1.1375003766273033	-0.8164413300103648	0.0	1.136938887568289	-0.8109606560632071	0.0	1.1060607141018821	-0.8031003636384255	0.0	1.125937546377735	-0.4290811774426213	0.0	1.1550398332497904	-0.3619622267010254	0.0	1.152761898720926	-0.3956011220011796	0.0	1.1223369772363778	-0.43164488672693635	0.0	1.160113723221442	-0.3692971237815007	0.0	1.1896153239419205	-0.31033007987683786	0.0	1.1229782138717337	-0.4307348981448201	0.0	1.1663143036371915	-0.3800989995350393	0.0	1.204248285139412	-0.3201669732018326	0.0
95	3.187777777777778	1.1019467215930454	-0.5713929925419374	0.0	1.099784767334537	-0.5682548463379069	0.0	1.1065643626700223	-0.681164308096305	0.0	1.1082499357066857	-0.78244119278423	0.0	1.138778093279032	-0.8085786839432983	0.0	1.135217779607401	-0.8086469557296034	0.0	1.1053596593106225	-0.7996650029892374	0.0	1.1040212625878798	-0.5675094762261113	0.0	1.1069603297894475	-0.6792313937664226	0.0	1.1087398852149155	-0.7826922108122081	0.0	1.137744690095553	-0.8091188200674183	0.0	1.1369826208131875	-0.8034604195012018	0.0	1.1045517414624209	-0.7953028144585725	0.0	1.1279920663385774	-0.42086655922266375	0.0	1.157067889323717	-0.3529206820088993	0.0	1.1551287749363595	-0.3871968678486928	0.0	1.123820312945698	-0.4232265111812622	0.0	1.1612812284457652	-0.3610967953856153	0.0	1.1897568133893413	-0.302767473947153	0.0	1.1259295938049907	-0.4224614574950775	0.0	1.172504120595987	-0.3728192528351762	0.0	1.2114220398906907	-0.3135808071823478	0.0
96	3.221333333333333	1.1018011158040995	-0.5619840382411471	0.0	1.0991503752914569	-0.5591754438035502	0.0	1.1060693479882389	-0.6723581601691118	0.0	1.1073355487881145	-0.7740972577667782	0.0	1.1410346982858715	-0.8012104588483376	0.0	1.1370614607777256	-0.8011318349082355	0.0	1.1040175506815197	-0.7916483909171262	0.0	1.1035476106019295	-0.5582424475681504	0.0	1.1057719478323784	-0.6705573566433114	0.0	1.1078954888909849	-0.7745387921337593	0.0	1.1386053249915666	-0.8014495564009967	0.0	1.1375817786164582	-0.7957256408869657	0.0	1.103296036710057	-0.7877207482149842	0.0	1.12931531118818	-0.41244484467075004	0.0	1.158671041955302	-0.34352499080384	0.0	1.1565137251469149	-0.3783019754287452	0.0	1.12444283497444	-0.41453155949348847	0.0	1.161120804880475	-0.35262485786275594	0.0	1.1873413968994457	-0.294656931632058	0.0	1.1285636431606774	-0.4138587639063807	0.0	1.17779738048481	-0.3652043118837395	0.0	1.2175019887542178	-0.3068879414648896	0.0
97	3.2548888888888885	1.101604240934124	-0.5531328069244786	0.0	1.098558708398018	-0.5506370618859913	0.0	1.1060410413278274	-0.6640367514988194	0.0	1.1067368728434839	-0.7666537751571415	0.0	1.1433833983833506	-0.7944964259854487	0.0	1.1389509754220042	-0.7943147391970916	0.0	1.102976988604259	-0.7846879533257428	0.0	1.1034111979549175	-0.5496095147453094	0.0	1.1052190895582772	-0.6625067582273518	0.0	1.1075174815926316	-0.7672563503690857	0.0	1.139779728761661	-0.7944713336417573	0.0	1.138518862551279	-0.7888247733967254	0.0	1.1024577716979918	-0.7812001853180366	0.0	1.1300182754642982	-0.4045810193365922	0.0	1.1597303069261264	-0.33485290025429326	0.0	1.1569474334455763	-0.36994344255392836	0.0	1.124495330323964	-0.40635752814519943	0.0	1.1602705510538398	-0.34466005582737713	0.0	1.1845027706225661	-0.28668748182288695	0.0	1.1306605329281894	-0.4057058075919559	0.0	1.1814300121870798	-0.3577864181826962	0.0	1.2218256914637118	-0.3005295613257377	0.0
98	3.288444444444444	1.101513215670909	-0.5457825334007388	0.0	1.0983032304988698	-0.5435020405220701	0.0	1.1064716970472943	-0.6571685818932534	0.0	1.106468537349884	-0.760887123242459	0.0	1.1453890858198443	-0.789218269726774	0.0	1.1405590226817894	-0.7889870913973286	0.0	1.1023781011897245	-0.7794564490027398	0.0	1.1037217554838457	-0.5424994617116166	0.0	1.105399206854665	-0.6560227956137329	0.0	1.1075038142726559	-0.7616065482884657	0.0	1.140900806333539	-0.7889600383261423	0.0	1.1394541345349178	-0.783533968663716	0.0	1.10206004729851	-0.7762752961969344	0.0	1.1301550465936905	-0.39793376947276726	0.0	1.1600657551350748	-0.32773031393017676	0.0	1.1565587777500743	-0.3630072526658962	0.0	1.1241670089284488	-0.3993944543300455	0.0	1.1591215767361338	-0.3378352706666237	0.0	1.182604109607425	-0.2794916967626158	0.0	1.131984802084492	-0.39869190056621817	0.0	1.1831148562384675	-0.35111539118193547	0.0	1.224188881252536	-0.2949005447181786	0.0
99	3.3219999999999996	1.1016732828226714	-0.5406746519098933	0.0	1.0985384939953475	-0.5384506494833733	0.0	1.1073212857721204	-0.6524426052273895	0.0	1.1064228037959736	-0.7572379820324228	0.0	1.1466983922855076	-0.7858233072381372	0.0	1.1416227684381381	-0.7856332661184976	0.0	1.1022058293992845	-0.7763240250518344	0.0	1.1044003969920855	-0.5375539244233812	0.0	1.1062838001404167	-0.6517073762263706	0.0	1.1076400079505604	-0.7580419457109164	0.0	1.1416922580358169	-0.7853588770471698	0.0	1.1400561940576746	-0.7802502774081775	0.0	1.101976629201028	-0.7732035711064564	0.0	1.1297064098687641	-0.3930146736634312	0.0	1.1596032007387682	-0.32264073458302295	0.0	1.1555241641737994	-0.3580586801385365	0.0	1.1235869846935558	-0.39419403063522684	0.0	1.158015687007954	-0.33276373065667725	0.0	1.1822211560731002	-0.27374937688476314	0.0	1.1322407614750052	-0.39336032026589396	0.0	1.182771689197647	-0.3456510543462813	0.0	1.224463091876704	-0.2902163520277263	0.0
100	3.355555555555555	1.10221747862256	-0.5382453950447145	0.0	1.0992856690593553	-0.5359087560190032	0.0	1.10850783798471	-0.6501902108973798	0.0	1.1064461464602109	-0.7558357552911275	0.0	1.1470732279840572	-0.7844368098598853	0.0	1.1419304195631839	-0.7844266546819323	0.0	1.1023080668093843	-0.7753659467853629	0.0	1.1052807327631502	-0.5351155973341069	0.0	1.1077304562319468	-0.6497689148957199	0.0	1.1076838689942017	-0.7566874926438885	0.0	1.1419775984241327	-0.7838104604871888	0.0	1.1400915148425605	-0.7790084543626434	0.0	1.101988777874347	-0.7719924205953486	0.0	1.1286284826055752	-0.39018434851742634	0.0	1.1584024321468196	-0.31982497466472465	0.0	1.1539858492279622	-0.3553937017496593	0.0	1.1228745037883898	-0.3911537306026852	0.0	1.1573478592685318	-0.33007694034272084	0.0	1.1835161973787682	-0.27026298049512515	0.0	1.1311524608844252	-0.3901234155134874	0.0	1.1803068809435786	-0.3417506998047059	0.0	1.2224251736816019	-0.2865754799423875	0.0
101	3.3891111111111107	1.1032095840334262	-0.5385963750089429	0.0	1.100455938928202	-0.5360292377898411	0.0	1.1098821283516889	-0.6504088857277551	0.0	1.1063693212610595	-0.7565418699067539	0.0	1.1463939854404337	-0.7849052824401602	0.0	1.1413399052832902	-0.7851962943710574	0.0	1.1024660648895	-0.77639948668612	0.0	1.106269110840115	-0.5352837073301938	0.0	1.1094987713092919	-0.6501131209147526	0.0	1.1074370687544588	-0.7573699778545467	0.0	1.14161439241406	-0.784169768185368	0.0	1.139438811617277	-0.7795297107100071	0.0	1.1018673139091373	-0.7724505977877726	0.0	1.126941225377144	-0.38967174705477553	0.0	1.1565912337330315	-0.31941404904955417	0.0	1.1520544317139798	-0.3551704936683906	0.0	1.1220803472250502	-0.3905407745028669	0.0	1.1573232189597293	-0.33022637389709986	0.0	1.18618729810389	-0.2696855766157777	0.0	1.1287307428592144	-0.38928588752911647	0.0	1.1757941786561026	-0.33972521948194345	0.0	1.2179602015086568	-0.2841583628765338	0.0
102	3.4226666666666663	1.1045717289592147	-0.5415345670984164	0.0	1.1018827150654966	-0.538723494446201	0.0	1.1112621835635186	-0.6528687514644175	0.0	1.1060086871031631	-0.7590225584050623	0.0	1.1446770426180428	-0.7868742260753108	0.0	1.1398482152287104	-0.7874528903140933	0.0	1.1024464526394646	-0.7790657668918693	0.0	1.1073367794599673	-0.5379520934934839	0.0	1.1112892091107953	-0.6524878796028991	0.0	1.1067895921440736	-0.7597292581826033	0.0	1.1404818822440812	-0.7860662862884138	0.0	1.1380518073238222	-0.7813665909310811	0.0	1.1014195672235119	-0.7742908619538089	0.0	1.1247994036656646	-0.3915487933177849	0.0	1.1543928588655308	-0.3214050534477503	0.0	1.1499139831463576	-0.35739119897440186	0.0	1.1211642838635907	-0.39250187470843395	0.0	1.1577531553501217	-0.3332685193675596	0.0	1.189356321840741	-0.27217605590220095	0.0	1.125413039051626	-0.39099845003317346	0.0	1.1697485862045307	-0.33983945448089753	0.0	1.2113833519397181	-0.28333339364151566	0.0
103	3.456222222222222	1.1061101112000287	-0.5466518364313165	0.0	1.1033861643671712	-0.5436829047776948	0.0	1.1125146314733143	-0.657207695512565	0.0	1.1052185178943215	-0.7628822084472477	0.0	1.1420758115511649	-0.7899247194513247	0.0	1.1375955036032357	-0.7906153798302326	0.0	1.1020344220442932	-0.7829463085976053	0.0	1.1084354652121913	-0.5428015103396433	0.0	1.1128522747414116	-0.6565795787856141	0.0	1.105730867438524	-0.7633803028917006	0.0	1.1385652232312529	-0.7890825472623889	0.0	1.135955676730764	-0.7841425474518537	0.0	1.1005026244958247	-0.7772512630840854	0.0	1.1224686201744074	-0.3956773556239984	0.0	1.152056342777466	-0.32553516445842784	0.0	1.1478168800868178	-0.3617736196893939	0.0	1.1200881036000023	-0.3969566860549073	0.0	1.1581658363646543	-0.33879686565516604	0.0	1.1918555015354846	-0.27728880939917483	0.0	1.12188412910054	-0.395168149941916	0.0	1.1631546350315995	-0.34222594402523765	0.0	1.2035795654388148	-0.28451584954658343	0.0
